<svg width="24px" height="19px" viewBox="0 0 24 19" version="1.1" xmlns="http://www.w3.org/2000/svg" xmlns:xlink="http://www.w3.org/1999/xlink">
    <g stroke="none" stroke-width="1" fill="none" fill-rule="evenodd">
        <g fill="#E66F35" fill-rule="nonzero">
            <path d="M11.9999531,15.7938281 C9.14207813,15.7938281 6.81703125,13.4687812 6.81703125,10.6109062 C6.81703125,7.75298437 9.14207813,5.42789062 11.9999531,5.42789062 C14.857875,5.42789062 17.1829219,7.75298437 17.1829219,10.6109062 C17.1829219,13.4687812 14.857875,15.7938281 11.9999531,15.7938281 Z M11.9999531,4.446375 C8.60090625,4.446375 5.83551562,7.21176562 5.83551562,10.6109062 C5.83551562,14.01 8.60090625,16.7753437 11.9999531,16.7753437 C15.3990469,16.7753437 18.1643906,14.01 18.1643906,10.6109062 C18.1643906,7.21176562 15.3990937,4.446375 11.9999531,4.446375 L11.9999531,4.446375 Z"></path>
            <g>
                <g transform="translate(8.000000, 6.000000)">
                    <path d="M3.9999531,7.5273281 C2.3918125,7.5273281 1.08348437,6.2190469 1.08348437,4.6109062 C1.08348437,3.00271875 2.3918125,1.69439062 3.9999531,1.69439062 C5.6081406,1.69439062 6.9164687,3.00271875 6.9164687,4.6109062 C6.9164687,6.2190469 5.6081406,7.5273281 3.9999531,7.5273281 Z M3.9999531,0.76457812 C1.87914062,0.76457812 0.15367187,2.49 0.15367187,4.6109062 C0.15367187,6.7317187 1.87914062,8.4571406 3.9999531,8.4571406 C6.1208125,8.4571406 7.8462812,6.7317187 7.8462812,4.6109062 C7.8462812,2.49004687 6.1208125,0.76457812 3.9999531,0.76457812 L3.9999531,0.76457812 Z"></path>
                </g>
                <g>
                    <path d="M22.4502656,17.529375 L1.54973438,17.529375 C1.264875,17.529375 1.03317188,17.297625 1.03317188,17.0128125 L1.03317188,15.6862969 L3.079875,15.6862969 C3.36515625,15.6862969 3.5964375,15.4549687 3.5964375,15.1696875 L3.5964375,6.05203125 C3.5964375,5.76675 3.36515625,5.53542187 3.079875,5.53542187 L1.03317188,5.53542187 L1.03317188,4.20890625 C1.03317188,3.92409375 1.264875,3.69234375 1.54973438,3.69234375 L15.7667344,3.69234375 C15.7680938,3.69234375 15.7693594,3.69248437 15.7706719,3.69248437 C15.7717969,3.69248437 15.7729688,3.69234375 15.7741406,3.69234375 L22.4502188,3.69234375 C22.7350781,3.69234375 22.9667813,3.92409375 22.9667813,4.20890625 L22.9667813,5.53542187 L20.9200781,5.53542187 C20.6347969,5.53542187 20.4035156,5.76675 20.4035156,6.05203125 L20.4035156,15.1696875 C20.4035156,15.4549687 20.6347969,15.6862969 20.9200781,15.6862969 L22.9667813,15.6862969 L22.9667813,17.0128125 C22.966875,17.297625 22.735125,17.529375 22.4502656,17.529375 Z M1.03317188,14.653125 L2.5633125,14.653125 L2.5633125,6.56859375 L1.03317188,6.56859375 L1.03317188,14.653125 Z M3.2015625,1.97034375 C3.2015625,1.95614063 3.21314063,1.94451563 3.22739063,1.94451563 L4.71426563,1.94451563 C4.72851563,1.94451563 4.74009375,1.95614063 4.74009375,1.97034375 L4.74009375,2.65926563 L3.2015625,2.65926563 L3.2015625,1.97034375 Z M9.4839375,1.25751562 C9.52504688,1.14553125 9.6328125,1.07029687 9.75210938,1.07029687 L14.2477969,1.07029687 C14.3670938,1.07029687 14.4748594,1.14553125 14.5159688,1.25751562 L15.0306094,2.65926562 L8.96929688,2.65926562 L9.4839375,1.25751562 Z M21.4366875,14.653125 L22.966875,14.653125 L22.966875,6.56859375 L21.4366875,6.56859375 L21.4366875,14.653125 Z M22.4502656,2.65926563 L16.1312344,2.65926563 L15.4858594,0.901453125 C15.2960625,0.38446875 14.7985781,0.037171875 14.2478438,0.037171875 L9.75215625,0.037171875 C9.20142187,0.037171875 8.7039375,0.384515625 8.51414062,0.901453125 L7.86871875,2.65921875 L5.7215625,2.65921875 L5.7215625,1.97034375 C5.7215625,1.41492188 5.26973438,0.963046875 4.71426562,0.963046875 L3.22739062,0.963046875 C2.67196875,0.963046875 2.22009375,1.41492188 2.22009375,1.97034375 L2.22009375,2.65926563 L1.54973437,2.65926563 C0.695203125,2.65926563 0,3.35446875 0,4.20895313 L0,17.0128125 C0,17.8672969 0.695203125,18.5625 1.54973437,18.5625 L22.4502656,18.5625 C23.3047969,18.5625 24,17.8672969 24,17.0128125 L24,4.20895313 C24,3.35446875 23.3047969,2.65926563 22.4502656,2.65926563 L22.4502656,2.65926563 Z"></path>
                </g>
            </g>
            <path d="M11.9999531,8.71040625 C10.9520625,8.71040625 10.0995,9.56296875 10.0995,10.6109063 C10.0995,10.8676875 10.307625,11.0758125 10.5644063,11.0758125 C10.8211875,11.0758125 11.0293125,10.8676875 11.0293125,10.6109063 C11.0293125,10.0756406 11.4647344,9.64021875 11.9999531,9.64021875 C12.2567813,9.64021875 12.4649063,9.43209375 12.4649063,9.1753125 C12.4649063,8.91853125 12.2567813,8.71040625 11.9999531,8.71040625"></path>
        </g>
    </g>
</svg>